<svg xmlns="http://www.w3.org/2000/svg" viewBox="0 0 1000 1040"><title>芋頭 新芽</title><path fill="#407040" d="M725,177 695,173 643,157 616,155 589,158 563,169 480,216 449,231 415,242 379,249 344,261 311,278 281,301 300,298 248,352 174,420 130,455 114,476 101,499 69,569 70,574 75,581 93,582 107,581 123,576 140,566 205,518 233,504 299,481 365,446 398,424 461,373 446,378 478,358 512,342 578,322 606,307 628,287 646,264 684,204 695,193 716,184 725,177ZM625,365 652,364 704,357 729,357 753,361 775,370 835,406 854,415 871,420 888,420 903,424 915,431 924,444 914,443 927,483 931,507 927,523 917,546 911,555 904,560 868,565 829,558 814,553 798,544 746,505 727,495 685,481 646,459 627,444 594,411 596,412 583,401 570,395 550,393 544,388 542,379 544,369 548,358 555,348 563,343 573,343 612,362 625,365Z"/><path fill="#708060" d="M520,997 517,836 512,692 491,281 471,282 473,371 485,739 488,997 520,997ZM736,962 733,724 724,403 709,403 711,962 736,962Z"/><path fill="#80a050" d="M615,66 618,71 624,84 632,116 652,248 654,211 653,176 650,129 646,103 641,83 634,70 625,64 615,66Z"/><path fill="#709050" d="M664,988 670,911 674,833 675,679 671,533 658,247 645,248 653,535 655,680 651,833 647,910 639,986 664,988Z"/></svg>